<svg xmlns="http://www.w3.org/2000/svg" xmlns:xlink="http://www.w3.org/1999/xlink" width="17" height="8" viewBox="0 0 17 8"><defs><path id="4nzka" d="M238.635 454a.583.583 0 0 0-.417.202l-2.98 3.268a.69.69 0 0 0-.238.527.69.69 0 0 0 .24.532l2.978 3.266a.572.572 0 0 0 .591.183.639.639 0 0 0 .434-.476.709.709 0 0 0-.167-.647l-1.997-2.191h14.306a.598.598 0 0 0 .532-.33.721.721 0 0 0 0-.67.598.598 0 0 0-.532-.33h-14.306l1.997-2.192a.713.713 0 0 0 .136-.736.606.606 0 0 0-.577-.406z"/></defs><g><g transform="rotate(-180 126 231)"><use fill="#909090" xlink:href="#4nzka"/></g></g></svg>