<svg xmlns="http://www.w3.org/2000/svg" xmlns:xlink="http://www.w3.org/1999/xlink" width="32" height="14" viewBox="0 0 32 14"><defs><path id="uhlca" d="M460.157 1225c.297.01.578.136.785.353l5.608 5.719c.283.22.45.56.45.923a1.173 1.173 0 0 1-.452.93l-5.606 5.717a1.127 1.127 0 0 1-1.112.32 1.153 1.153 0 0 1-.817-.833 1.18 1.18 0 0 1 .314-1.133l3.76-3.834h-26.929a1.138 1.138 0 0 1-1.002-.578 1.184 1.184 0 0 1 0-1.173c.207-.363.59-.584 1.002-.578h26.93l-3.76-3.834a1.181 1.181 0 0 1-.256-1.288 1.14 1.14 0 0 1 1.085-.71z"/></defs><g><g transform="rotate(-180 233.5 619.5)"><use fill="#909090" xlink:href="#uhlca"/></g></g></svg>