<svg id="SVGDoc" width="32" height="14" xmlns="http://www.w3.org/2000/svg" version="1.1" xmlns:xlink="http://www.w3.org/1999/xlink" xmlns:avocode="https://avocode.com/" viewBox="0 0 32 14"><defs><path d="M282.84306,564.00051c-0.29662,0.00901 -0.57815,0.13543 -0.78495,0.35246l-5.60837,5.71902c-0.28262,0.21963 -0.44886,0.5609 -0.44974,0.92324c-0.00087,0.36234 0.16372,0.70445 0.44528,0.92549c0.00222,0.00152 0.00445,0.00304 0.00669,0.00455l5.60614,5.71674c0.28637,0.30415 0.71161,0.42667 1.11173,0.3203c0.40011,-0.10636 0.71257,-0.42499 0.81688,-0.83299c0.10431,-0.40801 -0.01584,-0.84164 -0.31411,-1.13366l-3.75973,-3.8339h26.92911c0.41176,0.00594 0.79475,-0.21466 1.00233,-0.57733c0.20757,-0.36267 0.20757,-0.81121 0,-1.17388c-0.20758,-0.36267 -0.59057,-0.58327 -1.00233,-0.57733h-26.92911l3.75973,-3.8339c0.33768,-0.33472 0.43922,-0.8465 0.25568,-1.28874c-0.18354,-0.44225 -0.61451,-0.72423 -1.08523,-0.71007z" id="Path-0"/></defs><desc>Generated with Avocode.</desc><g transform="matrix(1,0,0,1,-276,-564)"><g transform="rotate(-180 292 571)"><title>Path</title><use xlink:href="#Path-0" fill="#039132" fill-opacity="1"/></g></g></svg>